<mxfile host="app.diagrams.net" modified="2022-06-11T13:27:54.088Z" agent="5.0 (Windows NT 10.0; Win64; x64) AppleWebKit/537.36 (KHTML, like Gecko) Chrome/101.0.4951.41 Safari/537.36" etag="C2PALFbo99hC8_FQIxMA" version="19.0.3" type="github">
  <diagram id="RMjoEuugMsrKHlCrW4-1" name="Page-1">
    <mxGraphModel dx="815" dy="505" grid="1" gridSize="10" guides="1" tooltips="1" connect="1" arrows="1" fold="1" page="1" pageScale="1" pageWidth="827" pageHeight="1169" math="0" shadow="0">
      <root>
        <mxCell id="0" />
        <mxCell id="1" parent="0" />
        <mxCell id="iPQBMcOmNS6Gxu9YSMPw-1" value="浏览器" style="whiteSpace=wrap;html=1;aspect=fixed;" vertex="1" parent="1">
          <mxGeometry x="170" y="260" width="80" height="80" as="geometry" />
        </mxCell>
        <mxCell id="iPQBMcOmNS6Gxu9YSMPw-2" value="服务器" style="whiteSpace=wrap;html=1;aspect=fixed;" vertex="1" parent="1">
          <mxGeometry x="580" y="260" width="80" height="80" as="geometry" />
        </mxCell>
        <mxCell id="iPQBMcOmNS6Gxu9YSMPw-3" value="" style="endArrow=classic;html=1;rounded=0;entryX=0.002;entryY=0.196;entryDx=0;entryDy=0;entryPerimeter=0;" edge="1" parent="1" target="iPQBMcOmNS6Gxu9YSMPw-2">
          <mxGeometry width="50" height="50" relative="1" as="geometry">
            <mxPoint x="250" y="270" as="sourcePoint" />
            <mxPoint x="300" y="220" as="targetPoint" />
          </mxGeometry>
        </mxCell>
        <mxCell id="iPQBMcOmNS6Gxu9YSMPw-4" value="SYN=1,seq=x" style="text;html=1;strokeColor=none;fillColor=none;align=center;verticalAlign=middle;whiteSpace=wrap;rounded=0;" vertex="1" parent="1">
          <mxGeometry x="340" y="240" width="90" height="30" as="geometry" />
        </mxCell>
        <mxCell id="iPQBMcOmNS6Gxu9YSMPw-5" value="" style="endArrow=classic;html=1;rounded=0;" edge="1" parent="1">
          <mxGeometry width="50" height="50" relative="1" as="geometry">
            <mxPoint x="580" y="300" as="sourcePoint" />
            <mxPoint x="260" y="300" as="targetPoint" />
          </mxGeometry>
        </mxCell>
        <mxCell id="iPQBMcOmNS6Gxu9YSMPw-6" value="SYN=1,seq=y,ack=x+1" style="text;html=1;strokeColor=none;fillColor=none;align=center;verticalAlign=middle;whiteSpace=wrap;rounded=0;" vertex="1" parent="1">
          <mxGeometry x="350" y="280" width="130" height="20" as="geometry" />
        </mxCell>
        <mxCell id="iPQBMcOmNS6Gxu9YSMPw-7" value="" style="endArrow=classic;html=1;rounded=0;entryX=0;entryY=0.75;entryDx=0;entryDy=0;" edge="1" parent="1" target="iPQBMcOmNS6Gxu9YSMPw-2">
          <mxGeometry width="50" height="50" relative="1" as="geometry">
            <mxPoint x="250" y="320" as="sourcePoint" />
            <mxPoint x="300" y="270" as="targetPoint" />
          </mxGeometry>
        </mxCell>
        <mxCell id="iPQBMcOmNS6Gxu9YSMPw-8" value="ACK=1,seq=x+1" style="text;html=1;strokeColor=none;fillColor=none;align=center;verticalAlign=middle;whiteSpace=wrap;rounded=0;" vertex="1" parent="1">
          <mxGeometry x="370" y="300" width="60" height="30" as="geometry" />
        </mxCell>
        <mxCell id="iPQBMcOmNS6Gxu9YSMPw-9" value="三次握手" style="text;html=1;strokeColor=none;fillColor=none;align=center;verticalAlign=middle;whiteSpace=wrap;rounded=0;" vertex="1" parent="1">
          <mxGeometry x="160" y="220" width="60" height="30" as="geometry" />
        </mxCell>
        <mxCell id="iPQBMcOmNS6Gxu9YSMPw-10" value="网络请求有延时,&lt;br&gt;如果传输过程,浏览器丢包了,客户端,超时,关闭,服务器不知道,一直等,端口一直开着,造成了额外的开销,增加了我们服务器的压力==&amp;gt;宕机" style="text;html=1;strokeColor=none;fillColor=none;align=center;verticalAlign=middle;whiteSpace=wrap;rounded=0;" vertex="1" parent="1">
          <mxGeometry x="120" y="370" width="230" height="80" as="geometry" />
        </mxCell>
        <mxCell id="iPQBMcOmNS6Gxu9YSMPw-11" value="ddos:==&amp;gt; 半链接请求" style="text;html=1;strokeColor=none;fillColor=none;align=center;verticalAlign=middle;whiteSpace=wrap;rounded=0;" vertex="1" parent="1">
          <mxGeometry x="140" y="460" width="140" height="20" as="geometry" />
        </mxCell>
        <mxCell id="iPQBMcOmNS6Gxu9YSMPw-12" value="浏览器" style="whiteSpace=wrap;html=1;aspect=fixed;" vertex="1" parent="1">
          <mxGeometry x="160" y="545" width="80" height="80" as="geometry" />
        </mxCell>
        <mxCell id="iPQBMcOmNS6Gxu9YSMPw-13" value="服务器" style="whiteSpace=wrap;html=1;aspect=fixed;" vertex="1" parent="1">
          <mxGeometry x="600" y="545" width="80" height="80" as="geometry" />
        </mxCell>
        <mxCell id="iPQBMcOmNS6Gxu9YSMPw-14" value="四次挥手" style="text;html=1;strokeColor=none;fillColor=none;align=center;verticalAlign=middle;whiteSpace=wrap;rounded=0;" vertex="1" parent="1">
          <mxGeometry x="150" y="510" width="60" height="30" as="geometry" />
        </mxCell>
        <mxCell id="iPQBMcOmNS6Gxu9YSMPw-15" value="" style="endArrow=classic;html=1;rounded=0;entryX=0;entryY=0.25;entryDx=0;entryDy=0;" edge="1" parent="1" target="iPQBMcOmNS6Gxu9YSMPw-13">
          <mxGeometry width="50" height="50" relative="1" as="geometry">
            <mxPoint x="240" y="560" as="sourcePoint" />
            <mxPoint x="290" y="510" as="targetPoint" />
          </mxGeometry>
        </mxCell>
        <mxCell id="iPQBMcOmNS6Gxu9YSMPw-16" value="FIN=1" style="text;html=1;strokeColor=none;fillColor=none;align=center;verticalAlign=middle;whiteSpace=wrap;rounded=0;" vertex="1" parent="1">
          <mxGeometry x="340" y="530" width="60" height="30" as="geometry" />
        </mxCell>
        <mxCell id="iPQBMcOmNS6Gxu9YSMPw-17" value="" style="endArrow=classic;html=1;rounded=0;entryX=1.045;entryY=0.392;entryDx=0;entryDy=0;entryPerimeter=0;" edge="1" parent="1" target="iPQBMcOmNS6Gxu9YSMPw-12">
          <mxGeometry width="50" height="50" relative="1" as="geometry">
            <mxPoint x="600" y="580" as="sourcePoint" />
            <mxPoint x="650" y="530" as="targetPoint" />
          </mxGeometry>
        </mxCell>
        <mxCell id="iPQBMcOmNS6Gxu9YSMPw-18" value="" style="endArrow=classic;html=1;rounded=0;entryX=1.045;entryY=0.651;entryDx=0;entryDy=0;entryPerimeter=0;" edge="1" parent="1" target="iPQBMcOmNS6Gxu9YSMPw-12">
          <mxGeometry width="50" height="50" relative="1" as="geometry">
            <mxPoint x="600" y="595" as="sourcePoint" />
            <mxPoint x="650" y="545" as="targetPoint" />
          </mxGeometry>
        </mxCell>
        <mxCell id="iPQBMcOmNS6Gxu9YSMPw-19" value="" style="endArrow=classic;html=1;rounded=0;entryX=0;entryY=0.938;entryDx=0;entryDy=0;entryPerimeter=0;" edge="1" parent="1" target="iPQBMcOmNS6Gxu9YSMPw-13">
          <mxGeometry width="50" height="50" relative="1" as="geometry">
            <mxPoint x="240" y="620" as="sourcePoint" />
            <mxPoint x="290" y="570" as="targetPoint" />
          </mxGeometry>
        </mxCell>
        <mxCell id="iPQBMcOmNS6Gxu9YSMPw-20" value="ACK" style="text;html=1;strokeColor=none;fillColor=none;align=center;verticalAlign=middle;whiteSpace=wrap;rounded=0;" vertex="1" parent="1">
          <mxGeometry x="400" y="560" width="60" height="30" as="geometry" />
        </mxCell>
        <mxCell id="iPQBMcOmNS6Gxu9YSMPw-22" value="FIN" style="text;html=1;strokeColor=none;fillColor=none;align=center;verticalAlign=middle;whiteSpace=wrap;rounded=0;" vertex="1" parent="1">
          <mxGeometry x="420" y="585" width="60" height="30" as="geometry" />
        </mxCell>
        <mxCell id="iPQBMcOmNS6Gxu9YSMPw-25" value="ACK" style="text;html=1;strokeColor=none;fillColor=none;align=center;verticalAlign=middle;whiteSpace=wrap;rounded=0;" vertex="1" parent="1">
          <mxGeometry x="370" y="610" width="60" height="30" as="geometry" />
        </mxCell>
        <mxCell id="iPQBMcOmNS6Gxu9YSMPw-26" value="确保数据的完整性" style="text;html=1;strokeColor=none;fillColor=none;align=center;verticalAlign=middle;whiteSpace=wrap;rounded=0;" vertex="1" parent="1">
          <mxGeometry x="100" y="700" width="160" height="30" as="geometry" />
        </mxCell>
      </root>
    </mxGraphModel>
  </diagram>
</mxfile>
